<svg version="1" xmlns="http://www.w3.org/2000/svg" width="538.667" height="538.667" viewBox="0 0 404.000000 404.000000"><path d="M199.4 31.2c-.9 1.8-6.5 11.6-12.4 21.8-5.9 10.2-11.9 20.6-13.4 23.2-1.4 2.6-5.6 9.8-9.2 16-3.7 6.2-7.8 13.3-9.2 15.8-3.2 5.8-4.9 8.8-7.1 12.5-1.9 3.2-41.5 71.7-45.4 78.7-1.4 2.4-9.8 16.9-18.7 32.3-18.1 31.1-72.2 125-75.3 130.5-1 1.9-2.3 3.9-2.7 4.5-.4.5-1.9 3.1-3.3 5.7L0 377h404.1l-2.8-4.7c-1.5-2.7-4.4-7.6-6.5-11.1-2.1-3.4-3.8-6.4-3.8-6.6 0-.2-2.7-5-6-10.5-3.3-5.6-6-10.3-6-10.5 0-.3-2.2-4.1-5-8.6-2.7-4.5-5-8.3-5-8.6 0-.2-1.3-2.5-2.8-5.1-4.7-7.9-10-17-33.2-57.3-24.2-41.8-24.7-42.6-29.7-51.5-1.9-3.3-3.8-6.7-4.3-7.5-2.4-3.8-12-20.3-12-20.5 0-.3-52.7-91.9-54.9-95.5-.5-.8-4.7-8-9.3-15.9-4.6-8-9.8-17-11.5-20-1.8-3.1-4.5-7.7-5.9-10.4-1.5-2.6-3.1-4.7-3.5-4.7-.5 0-1.6 1.5-2.5 3.2z"/></svg>