<?xml version="1.0" encoding="UTF-8" standalone="no"?>
<svg
   xmlns:dc="http://purl.org/dc/elements/1.1/"
   xmlns:cc="http://creativecommons.org/ns#"
   xmlns:rdf="http://www.w3.org/1999/02/22-rdf-syntax-ns#"
   xmlns:svg="http://www.w3.org/2000/svg"
   xmlns="http://www.w3.org/2000/svg"
   xmlns:sodipodi="http://sodipodi.sourceforge.net/DTD/sodipodi-0.dtd"
   xmlns:inkscape="http://www.inkscape.org/namespaces/inkscape"
   id="Logo_FIXED"
   data-name="Logo — FIXED"
   viewBox="0 0 14.00034 11.375998"
   version="1.1"
   sodipodi:docname="Twitter_Logo_Blue.svg"
   width="14.00034"
   height="11.375998"
   inkscape:version="0.92.3 (2405546, 2018-03-11)">
  <metadata
     id="metadata15">
    <rdf:RDF>
      <cc:Work
         rdf:about="">
        <dc:format>image/svg+xml</dc:format>
        <dc:type
           rdf:resource="http://purl.org/dc/dcmitype/StillImage" />
        <dc:title>Twitter_Logo_Blue</dc:title>
      </cc:Work>
    </rdf:RDF>
  </metadata>
  <sodipodi:namedview
     pagecolor="#ffffff"
     bordercolor="#666666"
     borderopacity="1"
     objecttolerance="10"
     gridtolerance="10"
     guidetolerance="10"
     inkscape:pageopacity="0"
     inkscape:pageshadow="2"
     inkscape:window-width="1920"
     inkscape:window-height="1017"
     id="namedview13"
     showgrid="false"
     inkscape:zoom="26.700352"
     inkscape:cx="5.6672589"
     inkscape:cy="4.1906669"
     inkscape:window-x="-8"
     inkscape:window-y="-8"
     inkscape:window-maximized="1"
     inkscape:current-layer="Logo_FIXED" />
  <defs
     id="defs4">
    <style
       id="style2">.cls-1{fill:none;}.cls-2{fill:#1da1f2;}</style>
  </defs>
  <title
     id="title6">Twitter_Logo_Blue</title>
  <rect
     class="cls-1"
     width="400"
     height="400"
     id="rect8"
     x="-193.00024"
     y="-194.33304"
     style="fill:none" />
  <path
     class="cls-2"
     d="m 4.40242,11.375997 c 5.28317,0 8.17284,-4.3770596 8.17284,-8.1728396 0,-0.12432 0,-0.24808 -0.008,-0.37129 a 5.8443015,5.8443015 0 0 0 1.43308,-1.48683 5.7334188,5.7334188 0 0 1 -1.6498,0.45193 2.8823898,2.8823898 0 0 0 1.26283,-1.58875996 5.7563794,5.7563794 0 0 1 -1.82396,0.69722 A 2.8751096,2.8751096 0 0 0 6.89433,3.5251674 8.1549175,8.1549175 0 0 1 0.97442,0.52405744 2.8745496,2.8745496 0 0 0 1.86373,4.3584674 2.851029,2.851029 0 0 1 0.56001,3.9989374 c 0,0.0118 0,0.0241 0,0.0364 a 2.8734296,2.8734296 0 0 0 2.30446,2.81575 2.8678294,2.8678294 0 0 1 -1.29699,0.0493 2.8756696,2.8756696 0 0 0 2.68358,1.99477 A 5.7636596,5.7636596 0 0 1 0.68378,10.127187 5.8471016,5.8471016 0 0 1 0,10.085787 a 8.1319569,8.1319569 0 0 0 4.40283,1.28803"
     id="path10"
     inkscape:connector-curvature="0"
     style="fill:#1da1f2;stroke-width:0.05600136" />
</svg>
